  0
SECTION
  2
HEADER
  9
$ACADVER
  1
AC1021
  9
$ACADMAINTVER
 70
25
  9
$DWGCODEPAGE
  3
ANSI_1252
  9
$INSBASE
 10
0.0
 20
0.0
 30
0.0
  9
$EXTMIN
 10
1e+20
 20
1e+20
 30
1e+20
  9
$EXTMAX
 10
-1e+20
 20
-1e+20
 30
-1e+20
  9
$LIMMIN
 10
0.0
 20
0.0
  9
$LIMMAX
 10
420.0
 20
297.0
  9
$ORTHOMODE
 70
0
  9
$REGENMODE
 70
1
  9
$FILLMODE
 70
1
  9
$QTEXTMODE
 70
0
  9
$MIRRTEXT
 70
0
  9
$LTSCALE
 40
1.0
  9
$ATTMODE
 70
0
  9
$TEXTSIZE
 40
2.5
  9
$TRACEWID
 40
15.68
  9
$TEXTSTYLE
  7
STANDARD
  9
$CLAYER
  8
Schriftfeld-Rahmen
  9
$CELTYPE
  6
BYLAYER
  9
$CECOLOR
 62
256
  9
$CELTSCALE
 40
1.0
  9
$DISPSILH
 70
0
  9
$DIMSCALE
 40
1.25
  9
$DIMASZ
 40
2.5
  9
$DIMEXO
 40
0.625
  9
$DIMDLI
 40
3.75
  9
$DIMRND
 40
0.0
  9
$DIMDLE
 40
0.0
  9
$DIMEXE
 40
1.25
  9
$DIMTP
 40
0.0
  9
$DIMTM
 40
0.0
  9
$DIMTXT
 40
2.5
  9
$DIMCEN
 40
2.5
  9
$DIMTSZ
 40
0.0
  9
$DIMTOL
 70
0
  9
$DIMLIM
 70
0
  9
$DIMTIH
 70
0
  9
$DIMTOH
 70
0
  9
$DIMSE1
 70
0
  9
$DIMSE2
 70
0
  9
$DIMTAD
 70
1
  9
$DIMZIN
 70
8
  9
$DIMBLK
  1

  9
$DIMASO
 70
1
  9
$DIMSHO
 70
1
  9
$DIMPOST
  1

  9
$DIMAPOST
  1

  9
$DIMALT
 70
0
  9
$DIMALTD
 70
3
  9
$DIMALTF
 40
0.03937
  9
$DIMLFAC
 40
1.0
  9
$DIMTOFL
 70
1
  9
$DIMTVP
 40
0.0
  9
$DIMTIX
 70
0
  9
$DIMSOXD
 70
0
  9
$DIMSAH
 70
0
  9
$DIMBLK1
  1

  9
$DIMBLK2
  1

  9
$DIMSTYLE
  2
STANDARD
  9
$DIMCLRD
 70
0
  9
$DIMCLRE
 70
0
  9
$DIMCLRT
 70
0
  9
$DIMTFAC
 40
1.0
  9
$DIMGAP
 40
0.625
  9
$DIMJUST
 70
0
  9
$DIMSD1
 70
0
  9
$DIMSD2
 70
0
  9
$DIMTOLJ
 70
0
  9
$DIMTZIN
 70
8
  9
$DIMALTZ
 70
0
  9
$DIMALTTZ
 70
0
  9
$DIMUPT
 70
0
  9
$DIMDEC
 70
2
  9
$DIMTDEC
 70
2
  9
$DIMALTU
 70
2
  9
$DIMALTTD
 70
3
  9
$DIMTXSTY
  7
standard
  9
$DIMAUNIT
 70
0
  9
$DIMADEC
 70
0
  9
$DIMALTRND
 40
0.0
  9
$DIMAZIN
 70
0
  9
$DIMDSEP
 70
44
  9
$DIMATFIT
 70
3
  9
$DIMFRAC
 70
0
  9
$DIMLDRBLK
  1
STANDARD
  9
$DIMLUNIT
 70
2
  9
$DIMLWD
 70
-2
  9
$DIMLWE
 70
-2
  9
$DIMTMOVE
 70
0
  9
$DIMFXL
 40
1.0
  9
$DIMFXLON
 70
0
  9
$DIMJOGANG
 40
0.7854
  9
$DIMTFILL
 70
0
  9
$DIMTFILLCLR
 70
0
  9
$DIMARCSYM
 70
0
  9
$DIMLTYPE
  6

  9
$DIMLTEX1
  6

  9
$DIMLTEX2
  6

  9
$LUNITS
 70
2
  9
$LUPREC
 70
4
  9
$SKETCHINC
 40
1.0
  9
$FILLETRAD
 40
0.0
  9
$AUNITS
 70
0
  9
$AUPREC
 70
2
  9
$MENU
  1
.
  9
$ELEVATION
 40
0.0
  9
$PELEVATION
 40
0.0
  9
$THICKNESS
 40
0.0
  9
$LIMCHECK
 70
0
  9
$CHAMFERA
 40
0.0
  9
$CHAMFERB
 40
0.0
  9
$CHAMFERC
 40
0.0
  9
$CHAMFERD
 40
0.0
  9
$SKPOLY
 70
0
  9
$TDCREATE
 40
2461165.721724537
  9
$TDUPDATE
 40
2461165.721724537
  9
$USRTIMER
 70
1
  9
$ANGBASE
 50
0.0
  9
$ANGDIR
 70
0
  9
$PDMODE
 70
34
  9
$PDSIZE
 40
0.0
  9
$PLINEWID
 40
0.0
  9
$SPLFRAME
 70
0
  9
$SPLINETYPE
 70
2
  9
$SPLINESEGS
 70
8
  9
$HANDSEED
  5
20016
  9
$SURFTAB1
 70
6
  9
$SURFTAB2
 70
6
  9
$SURFTYPE
 70
6
  9
$SURFU
 70
6
  9
$SURFV
 70
6
  9
$UCSBASE
  2

  9
$UCSNAME
  2

  9
$UCSORG
 10
0.0
 20
0.0
 30
0.0
  9
$UCSXDIR
 10
1.0
 20
0.0
 30
0.0
  9
$UCSYDIR
 10
0.0
 20
1.0
 30
0.0
  9
$UCSORTHOREF
  2

  9
$UCSORTHOVIEW
 70
0
  9
$UCSORGTOP
 10
0.0
 20
0.0
 30
0.0
  9
$UCSORGBOTTOM
 10
0.0
 20
0.0
 30
0.0
  9
$UCSORGLEFT
 10
0.0
 20
0.0
 30
0.0
  9
$UCSORGRIGHT
 10
0.0
 20
0.0
 30
0.0
  9
$UCSORGFRONT
 10
0.0
 20
0.0
 30
0.0
  9
$UCSORGBACK
 10
0.0
 20
0.0
 30
0.0
  9
$PUCSBASE
  2

  9
$PUCSNAME
  2

  9
$PUCSORG
 10
0.0
 20
0.0
 30
0.0
  9
$PUCSXDIR
 10
1.0
 20
0.0
 30
0.0
  9
$PUCSYDIR
 10
0.0
 20
1.0
 30
0.0
  9
$PUCSORTHOREF
  2

  9
$PUCSORTHOVIEW
 70
0
  9
$PUCSORGTOP
 10
0.0
 20
0.0
 30
0.0
  9
$PUCSORGBOTTOM
 10
0.0
 20
0.0
 30
0.0
  9
$PUCSORGLEFT
 10
0.0
 20
0.0
 30
0.0
  9
$PUCSORGRIGHT
 10
0.0
 20
0.0
 30
0.0
  9
$PUCSORGFRONT
 10
0.0
 20
0.0
 30
0.0
  9
$PUCSORGBACK
 10
0.0
 20
0.0
 30
0.0
  9
$USERI1
 70
0
  9
$USERI2
 70
0
  9
$USERI3
 70
0
  9
$USERI4
 70
0
  9
$USERI5
 70
0
  9
$USERR1
 40
0.0
  9
$USERR2
 40
0.0
  9
$USERR3
 40
0.0
  9
$USERR4
 40
0.0
  9
$USERR5
 40
0.0
  9
$WORLDVIEW
 70
1
  9
$SHADEDGE
 70
3
  9
$SHADEDIF
 70
70
  9
$TILEMODE
 70
1
  9
$MAXACTVP
 70
64
  9
$PINSBASE
 10
0.0
 20
0.0
 30
0.0
  9
$PLIMCHECK
 70
0
  9
$PEXTMIN
 10
1e+20
 20
1e+20
 30
1e+20
  9
$PEXTMAX
 10
-1e+20
 20
-1e+20
 30
-1e+20
  9
$PLIMMIN
 10
0.0
 20
0.0
  9
$PLIMMAX
 10
420.0
 20
297.0
  9
$UNITMODE
 70
0
  9
$VISRETAIN
 70
1
  9
$PLINEGEN
 70
0
  9
$PSLTSCALE
 70
1
  9
$TREEDEPTH
 70
3020
  9
$CMLSTYLE
  2
Standard
  9
$CMLJUST
 70
0
  9
$CMLSCALE
 40
20.0
  9
$PROXYGRAPHICS
 70
1
  9
$MEASUREMENT
 70
1
  9
$CELWEIGHT
370
-1
  9
$ENDCAPS
280
0
  9
$JOINSTYLE
280
0
  9
$LWDISPLAY
290
0
  9
$INSUNITS
 70
4
  9
$HYPERLINKBASE
  1

  9
$STYLESHEET
  1

  9
$XEDIT
290
1
  9
$CEPSNTYPE
380
0
  9
$PSTYLEMODE
290
1
  9
$FINGERPRINTGUID
  2
{9E15B197-35CB-4E84-9812-05F5A88C6F6E}
  9
$VERSIONGUID
  2
{2C56D552-D192-40F1-B231-8E98EEBC6998}
  9
$EXTNAMES
290
1
  9
$PSVPSCALE
 40
1.0
  9
$OLESTARTUP
290
0
  9
$SORTENTS
280
127
  9
$INDEXCTL
280
0
  9
$HIDETEXT
280
1
  9
$XCLIPFRAME
290
0
  9
$HALOGAP
280
0
  9
$OBSCOLOR
 70
257
  9
$OBSLTYPE
280
0
  9
$INTERSECTIONDISPLAY
280
0
  9
$INTERSECTIONCOLOR
 70
257
  9
$DIMASSOC
280
1
  9
$PROJECTNAME
  1

  9
$CAMERADISPLAY
290
0
  9
$LENSLENGTH
 40
50.0
  9
$CAMERAHEIGHT
 40
0.0
  9
$STEPSPERSEC
 40
2.0
  9
$STEPSIZE
 40
50.0
  9
$3DDWFPREC
 40
2.0
  9
$PSOLWIDTH
 40
5.0
  9
$PSOLHEIGHT
 40
80.0
  9
$LOFTANG1
 40
1.570796326794897
  9
$LOFTANG2
 40
1.570796326794897
  9
$LOFTMAG1
 40
0.0
  9
$LOFTMAG2
 40
0.0
  9
$LOFTPARAM
 70
7
  9
$LOFTNORMALS
280
1
  9
$LATITUDE
 40
1.0
  9
$LONGITUDE
 40
1.0
  9
$NORTHDIRECTION
 40
0.0
  9
$TIMEZONE
 70
-8000
  9
$LIGHTGLYPHDISPLAY
280
1
  9
$TILEMODELIGHTSYNCH
280
1
  9
$CMATERIAL
347
2000E
  9
$SOLIDHIST
280
1
  9
$SHOWHIST
280
1
  9
$DWFFRAME
280
2
  9
$DGNFRAME
280
0
  9
$REALWORLDSCALE
290
1
  9
$INTERFERECOLOR
 62
1
  9
$CSHADOW
280
0
  9
$SHADOWPLANELOCATION
 40
0.0
  0
ENDSEC
  0
SECTION
  2
CLASSES
  0
CLASS
  1
ACDBDICTIONARYWDFLT
  2
AcDbDictionaryWithDefault
  3
ObjectDBX Classes
 90
0
 91
0
280
0
281
0
  0
CLASS
  1
SUN
  2
AcDbSun
  3
SCENEOE
 90
1153
 91
0
280
0
281
0
  0
CLASS
  1
VISUALSTYLE
  2
AcDbVisualStyle
  3
ObjectDBX Classes
 90
4095
 91
0
280
0
281
0
  0
CLASS
  1
MATERIAL
  2
AcDbMaterial
  3
ObjectDBX Classes
 90
1153
 91
0
280
0
281
0
  0
CLASS
  1
SCALE
  2
AcDbScale
  3
ObjectDBX Classes
 90
1153
 91
0
280
0
281
0
  0
CLASS
  1
TABLESTYLE
  2
AcDbTableStyle
  3
ObjectDBX Classes
 90
4095
 91
0
280
0
281
0
  0
CLASS
  1
MLEADERSTYLE
  2
AcDbMLeaderStyle
  3
ACDB_MLEADERSTYLE_CLASS
 90
4095
 91
0
280
0
281
0
  0
CLASS
  1
DICTIONARYVAR
  2
AcDbDictionaryVar
  3
ObjectDBX Classes
 90
0
 91
0
280
0
281
0
  0
CLASS
  1
CELLSTYLEMAP
  2
AcDbCellStyleMap
  3
ObjectDBX Classes
 90
1152
 91
0
280
0
281
0
  0
CLASS
  1
MENTALRAYRENDERSETTINGS
  2
AcDbMentalRayRenderSettings
  3
SCENEOE
 90
1024
 91
0
280
0
281
0
  0
CLASS
  1
ACDBDETAILVIEWSTYLE
  2
AcDbDetailViewStyle
  3
ObjectDBX Classes
 90
1025
 91
0
280
0
281
0
  0
CLASS
  1
ACDBSECTIONVIEWSTYLE
  2
AcDbSectionViewStyle
  3
ObjectDBX Classes
 90
1025
 91
0
280
0
281
0
  0
CLASS
  1
RASTERVARIABLES
  2
AcDbRasterVariables
  3
ISM
 90
0
 91
0
280
0
281
0
  0
CLASS
  1
IMAGE
  2
AcDbRasterImage
  3
ISM
 90
2175
 91
0
280
0
281
1
  0
CLASS
  1
IMAGEDEF
  2
AcDbRasterImageDef
  3
ISM
 90
0
 91
0
280
0
281
0
  0
CLASS
  1
IMAGEDEF_REACTOR
  2
AcDbRasterImageDefReactor
  3
ISM
 90
1
 91
0
280
0
281
0
  0
CLASS
  1
ACDBPLACEHOLDER
  2
AcDbPlaceHolder
  3
ObjectDBX Classes
 90
0
 91
0
280
0
281
0
  0
CLASS
  1
LAYOUT
  2
AcDbLayout
  3
ObjectDBX Classes
 90
0
 91
0
280
0
281
0
  0
ENDSEC
  0
SECTION
  2
TABLES
  0
TABLE
  2
VPORT
  5
8
330
0
100
AcDbSymbolTable
 70
1
  0
VPORT
  5
31
330
8
100
AcDbSymbolTableRecord
100
AcDbViewportTableRecord
  2
*ACTIVE
 70
0
 10
0.0
 20
0.0
 11
1.0
 21
1.0
 12
206.3046752261664
 22
59.78807941478487
 13
0.0
 23
0.0
 14
10.0
 24
10.0
 15
10.0
 25
10.0
 16
0.0
 26
0.0
 36
1.0
 17
0.0
 27
0.0
 37
0.0
 40
140.5198872473237
 41
1.761783439490446
 42
50.0
 43
0.0
 44
0.0
 50
0.0
 51
0.0
 71
0
 72
100
 73
1
 74
3
 75
0
 76
1
 77
0
 78
0
281
0
 65
1
110
0.0
120
0.0
130
0.0
111
1.0
121
0.0
131
0.0
112
0.0
122
1.0
132
0.0
 79
0
146
0.0
 60
7
 61
5
348
10020
292
1
282
1
141
0.0
142
0.0
 63
250
421
3358443
  0
ENDTAB
  0
TABLE
  2
LTYPE
  5
5
330
0
100
AcDbSymbolTable
 70
27
  0
LTYPE
  5
14
330
5
100
AcDbSymbolTableRecord
100
AcDbLinetypeTableRecord
  2
ByBlock
 70
0
  3

 72
65
 73
0
 40
0.0
  0
LTYPE
  5
15
330
5
100
AcDbSymbolTableRecord
100
AcDbLinetypeTableRecord
  2
ByLayer
 70
0
  3

 72
65
 73
0
 40
0.0
  0
LTYPE
  5
16
330
5
100
AcDbSymbolTableRecord
100
AcDbLinetypeTableRecord
  2
Continuous
 70
0
  3
Solid line
 72
65
 73
0
 40
0.0
  0
LTYPE
  5
32
330
5
100
AcDbSymbolTableRecord
100
AcDbLinetypeTableRecord
  2
DOT
 70
0
  3
Dot . . . . . . . . . . . . . . . . . . . . . .
 72
65
 73
2
 40
6.35
 49
0.0
 74
0
 49
-6.35
 74
0
  0
LTYPE
  5
33
330
5
100
AcDbSymbolTableRecord
100
AcDbLinetypeTableRecord
  2
DOTTINY
 70
0
  3
Dot (.15x) .....................................
 72
65
 73
2
 40
0.9525
 49
0.0
 74
0
 49
-0.9525
 74
0
  0
LTYPE
  5
34
330
5
100
AcDbSymbolTableRecord
100
AcDbLinetypeTableRecord
  2
DOT2
 70
0
  3
Dot (.5x) .....................................
 72
65
 73
2
 40
3.175
 49
0.0
 74
0
 49
-3.175
 74
0
  0
LTYPE
  5
35
330
5
100
AcDbSymbolTableRecord
100
AcDbLinetypeTableRecord
  2
DOTX2
 70
0
  3
Dot (2x) .  .  .  .  .  .  .  .  .  .  .  .  .
 72
65
 73
2
 40
12.7
 49
0.0
 74
0
 49
-12.7
 74
0
  0
LTYPE
  5
36
330
5
100
AcDbSymbolTableRecord
100
AcDbLinetypeTableRecord
  2
DASHED
 70
0
  3
Dashed _ _ _ _ _ _ _ _ _ _ _ _ _ _ _ _ _
 72
65
 73
2
 40
19.05
 49
12.7
 74
0
 49
-6.35
 74
0
  0
LTYPE
  5
37
330
5
100
AcDbSymbolTableRecord
100
AcDbLinetypeTableRecord
  2
DASHEDTINY
 70
0
  3
Dashed (.15x) _ _ _ _ _ _ _ _ _ _ _ _ _ _ _ _ _
 72
65
 73
2
 40
2.8575
 49
1.905
 74
0
 49
-0.9525
 74
0
  0
LTYPE
  5
38
330
5
100
AcDbSymbolTableRecord
100
AcDbLinetypeTableRecord
  2
DASHED2
 70
0
  3
Dashed (.5x) _ _ _ _ _ _ _ _ _ _ _ _ _ _ _ _ _
 72
65
 73
2
 40
9.524999999999999
 49
6.35
 74
0
 49
-3.175
 74
0
  0
LTYPE
  5
39
330
5
100
AcDbSymbolTableRecord
100
AcDbLinetypeTableRecord
  2
DASHEDX2
 70
0
  3
Dashed (2x) ____  ____  ____  ____  ____  ___
 72
65
 73
2
 40
38.09999999999999
 49
25.4
 74
0
 49
-12.7
 74
0
  0
LTYPE
  5
3A
330
5
100
AcDbSymbolTableRecord
100
AcDbLinetypeTableRecord
  2
DASHDOT
 70
0
  3
Dash dot __ . __ . __ . __ . __ . __ . __ . __
 72
65
 73
4
 40
25.4
 49
12.7
 74
0
 49
-6.35
 74
0
 49
0.0
 74
0
 49
-6.35
 74
0
  0
LTYPE
  5
3B
330
5
100
AcDbSymbolTableRecord
100
AcDbLinetypeTableRecord
  2
DASHDOTTINY
 70
0
  3
Dash dot (.15x) _._._._._._._._._._._._._._._.
 72
65
 73
4
 40
3.81
 49
1.905
 74
0
 49
-0.9525
 74
0
 49
0.0
 74
0
 49
-0.9525
 74
0
  0
LTYPE
  5
3C
330
5
100
AcDbSymbolTableRecord
100
AcDbLinetypeTableRecord
  2
DASHDOT2
 70
0
  3
Dash dot (.5x) _._._._._._._._._._._._._._._.
 72
65
 73
4
 40
12.7
 49
6.35
 74
0
 49
-3.175
 74
0
 49
0.0
 74
0
 49
-3.175
 74
0
  0
LTYPE
  5
3D
330
5
100
AcDbSymbolTableRecord
100
AcDbLinetypeTableRecord
  2
DASHDOTX2
 70
0
  3
Dash dot (2x) ____  .  ____  .  ____  .  ___
 72
65
 73
4
 40
50.8
 49
25.4
 74
0
 49
-12.7
 74
0
 49
0.0
 74
0
 49
-12.7
 74
0
  0
LTYPE
  5
3E
330
5
100
AcDbSymbolTableRecord
100
AcDbLinetypeTableRecord
  2
DIVIDE
 70
0
  3
Divide ____ . . ____ . . ____ . . ____ . . ____
 72
65
 73
6
 40
31.75
 49
12.7
 74
0
 49
-6.35
 74
0
 49
0.0
 74
0
 49
-6.35
 74
0
 49
0.0
 74
0
 49
-6.35
 74
0
  0
LTYPE
  5
3F
330
5
100
AcDbSymbolTableRecord
100
AcDbLinetypeTableRecord
  2
DIVIDETINY
 70
0
  3
Divide (.15x) __..__..__..__..__..__..__..__.._
 72
65
 73
6
 40
4.7625
 49
1.905
 74
0
 49
-0.9525
 74
0
 49
0.0
 74
0
 49
-0.9525
 74
0
 49
0.0
 74
0
 49
-0.9525
 74
0
  0
LTYPE
  5
40
330
5
100
AcDbSymbolTableRecord
100
AcDbLinetypeTableRecord
  2
DIVIDE2
 70
0
  3
Divide (.5x) __..__..__..__..__..__..__..__.._
 72
65
 73
6
 40
15.875
 49
6.35
 74
0
 49
-3.175
 74
0
 49
0.0
 74
0
 49
-3.175
 74
0
 49
0.0
 74
0
 49
-3.175
 74
0
  0
LTYPE
  5
41
330
5
100
AcDbSymbolTableRecord
100
AcDbLinetypeTableRecord
  2
DIVIDEX2
 70
0
  3
Divide (2x) ________  .  .  ________  .  .  _
 72
65
 73
6
 40
63.5
 49
25.4
 74
0
 49
-12.7
 74
0
 49
0.0
 74
0
 49
-12.7
 74
0
 49
0.0
 74
0
 49
-12.7
 74
0
  0
LTYPE
  5
42
330
5
100
AcDbSymbolTableRecord
100
AcDbLinetypeTableRecord
  2
BORDER
 70
0
  3
Border __ __ . __ __ . __ __ . __ __ . __ __ .
 72
65
 73
6
 40
44.45
 49
12.7
 74
0
 49
-6.35
 74
0
 49
12.7
 74
0
 49
-6.35
 74
0
 49
0.0
 74
0
 49
-6.35
 74
0
  0
LTYPE
  5
43
330
5
100
AcDbSymbolTableRecord
100
AcDbLinetypeTableRecord
  2
BORDERTINY
 70
0
  3
Border (.15x) __.__.__.__.__.__.__.__.__.__.__.
 72
65
 73
6
 40
6.6675
 49
1.905
 74
0
 49
-0.9525
 74
0
 49
1.905
 74
0
 49
-0.9525
 74
0
 49
0.0
 74
0
 49
-0.9525
 74
0
  0
LTYPE
  5
44
330
5
100
AcDbSymbolTableRecord
100
AcDbLinetypeTableRecord
  2
BORDER2
 70
0
  3
Border (.5x) __.__.__.__.__.__.__.__.__.__.__.
 72
65
 73
6
 40
22.225
 49
6.35
 74
0
 49
-3.175
 74
0
 49
6.35
 74
0
 49
-3.175
 74
0
 49
0.0
 74
0
 49
-3.175
 74
0
  0
LTYPE
  5
45
330
5
100
AcDbSymbolTableRecord
100
AcDbLinetypeTableRecord
  2
BORDERX2
 70
0
  3
Border (2x) ____  ____  .  ____  ____  .  ___
 72
65
 73
6
 40
88.89999999999999
 49
25.4
 74
0
 49
-12.7
 74
0
 49
25.4
 74
0
 49
-12.7
 74
0
 49
0.0
 74
0
 49
-12.7
 74
0
  0
LTYPE
  5
46
330
5
100
AcDbSymbolTableRecord
100
AcDbLinetypeTableRecord
  2
CENTER
 70
0
  3
Center ____ _ ____ _ ____ _ ____ _ ____ _ ____
 72
65
 73
4
 40
50.8
 49
31.75
 74
0
 49
-6.35
 74
0
 49
6.35
 74
0
 49
-6.35
 74
0
  0
LTYPE
  5
47
330
5
100
AcDbSymbolTableRecord
100
AcDbLinetypeTableRecord
  2
CENTERTINY
 70
0
  3
Center (.15x) ___ _ ___ _ ___ _ ___ _ ___ _ ___
 72
65
 73
4
 40
7.619999999999999
 49
4.7625
 74
0
 49
-0.9525
 74
0
 49
0.9525
 74
0
 49
-0.9525
 74
0
  0
LTYPE
  5
48
330
5
100
AcDbSymbolTableRecord
100
AcDbLinetypeTableRecord
  2
CENTER2
 70
0
  3
Center (.5x) ___ _ ___ _ ___ _ ___ _ ___ _ ___
 72
65
 73
4
 40
28.575
 49
19.05
 74
0
 49
-3.175
 74
0
 49
3.175
 74
0
 49
-3.175
 74
0
  0
LTYPE
  5
49
330
5
100
AcDbSymbolTableRecord
100
AcDbLinetypeTableRecord
  2
CENTERX2
 70
0
  3
Center (2x) ________  __  ________  __  _____
 72
65
 73
4
 40
101.6
 49
63.5
 74
0
 49
-12.7
 74
0
 49
12.7
 74
0
 49
-12.7
 74
0
  0
ENDTAB
  0
TABLE
  2
LAYER
  5
2
330
0
100
AcDbSymbolTable
 70
13
  0
LAYER
  5
10
330
2
100
AcDbSymbolTableRecord
100
AcDbLayerTableRecord
  2
0
 70
0
 62
7
  6
CONTINUOUS
370
0
390
F
347
2000F
  0
LAYER
  5
4A
330
2
100
AcDbSymbolTableRecord
100
AcDbLayerTableRecord
  2
Achsen
 70
0
 62
7
  6
CENTER2
370
25
390
F
347
2000F
  0
LAYER
  5
4B
330
2
100
AcDbSymbolTableRecord
100
AcDbLayerTableRecord
  2
Bemaßung
 70
0
 62
7
  6
CONTINUOUS
370
25
390
F
347
2000F
  0
LAYER
  5
4C
330
2
100
AcDbSymbolTableRecord
100
AcDbLayerTableRecord
  2
Defpoints
 70
0
 62
7
  6
CONTINUOUS
290
0
370
-3
390
F
347
2000F
  0
LAYER
  5
4D
330
2
100
AcDbSymbolTableRecord
100
AcDbLayerTableRecord
  2
Hilfslinie
 70
0
 62
6
  6
CONTINUOUS
370
0
390
F
347
2000F
  0
LAYER
  5
4E
330
2
100
AcDbSymbolTableRecord
100
AcDbLayerTableRecord
  2
Kosmetische Linie
 70
0
 62
5
  6
CONTINUOUS
370
0
390
F
347
2000F
  0
LAYER
  5
4F
330
2
100
AcDbSymbolTableRecord
100
AcDbLayerTableRecord
  2
Rahmen
 70
4
 62
7
  6
CONTINUOUS
370
35
390
F
347
2000F
  0
LAYER
  5
50
330
2
100
AcDbSymbolTableRecord
100
AcDbLayerTableRecord
  2
Schraffur
 70
0
 62
7
  6
CONTINUOUS
370
25
390
F
347
2000F
  0
LAYER
  5
51
330
2
100
AcDbSymbolTableRecord
100
AcDbLayerTableRecord
  2
Schriftfeld-Label
 70
4
 62
7
  6
CONTINUOUS
370
25
390
F
347
2000F
  0
LAYER
  5
52
330
2
100
AcDbSymbolTableRecord
100
AcDbLayerTableRecord
  2
Schriftfeld-Rahmen
 70
4
 62
7
  6
CONTINUOUS
370
35
390
F
347
2000F
  0
LAYER
  5
53
330
2
100
AcDbSymbolTableRecord
100
AcDbLayerTableRecord
  2
Schriftfeld-Text
 70
0
 62
7
  6
CONTINUOUS
370
35
390
F
347
2000F
  0
LAYER
  5
54
330
2
100
AcDbSymbolTableRecord
100
AcDbLayerTableRecord
  2
Sichtbar
 70
0
 62
7
  6
CONTINUOUS
370
50
390
F
347
2000F
  0
LAYER
  5
55
330
2
100
AcDbSymbolTableRecord
100
AcDbLayerTableRecord
  2
Unsichtbar
 70
0
 62
7
  6
DASHED2
370
35
390
F
347
2000F
  0
ENDTAB
  0
TABLE
  2
STYLE
  5
3
330
0
100
AcDbSymbolTable
 70
2
  0
STYLE
  5
56
330
3
100
AcDbSymbolTableRecord
100
AcDbTextStyleTableRecord
  2
standard
 70
0
 40
0.0
 41
1.0
 50
0.0
 71
0
 42
1.0
  3
standard
  4

  0
STYLE
  5
57
330
3
100
AcDbSymbolTableRecord
100
AcDbTextStyleTableRecord
  2
unicode
 70
0
 40
0.0
 41
1.0
 50
0.0
 71
0
 42
1.0
  3
unicode
  4

  0
ENDTAB
  0
TABLE
  2
VIEW
  5
6
330
0
100
AcDbSymbolTable
 70
0
  0
ENDTAB
  0
TABLE
  2
UCS
  5
7
330
0
100
AcDbSymbolTable
 70
0
  0
ENDTAB
  0
TABLE
  2
APPID
  5
9
330
0
100
AcDbSymbolTable
 70
4
  0
APPID
  5
12
330
9
100
AcDbSymbolTableRecord
100
AcDbRegAppTableRecord
  2
ACAD
 70
0
  0
APPID
  5
58
330
9
100
AcDbSymbolTableRecord
100
AcDbRegAppTableRecord
  2
LibreCad
 70
0
  0
APPID
  5
20012
330
9
100
AcDbSymbolTableRecord
100
AcDbRegAppTableRecord
  2
HATCHBACKGROUNDCOLOR
 70
0
  0
APPID
  5
20013
330
9
100
AcDbSymbolTableRecord
100
AcDbRegAppTableRecord
  2
EZDXF
 70
0
  0
ENDTAB
  0
TABLE
  2
DIMSTYLE
  5
A
330
0
100
AcDbSymbolTable
 70
1
100
AcDbDimStyleTable
  0
DIMSTYLE
105
59
330
A
100
AcDbSymbolTableRecord
100
AcDbDimStyleTableRecord
  2
Standard
 70
0
 40
1.25
 41
2.5
 42
0.625
 43
0.38
 44
1.25
 45
0.0
 46
0.0
 47
0.0
 48
0.0
 49
1.0
140
2.5
141
0.09
142
0.0
143
25.4
144
1.0
145
0.0
146
1.0
147
0.625
148
0.0
 69
0
 70
0
 71
0
 72
0
 73
0
 74
1
 75
0
 76
0
 77
0
 78
8
 79
0
170
0
171
2
172
0
173
0
174
0
175
0
176
0
177
0
178
0
179
0
271
2
272
4
273
2
274
2
275
0
276
0
277
2
278
44
279
0
280
0
281
0
282
0
283
1
284
0
285
0
286
0
288
0
289
3
290
0
340
56
371
-2
372
-2
  0
ENDTAB
  0
TABLE
  2
BLOCK_RECORD
  5
1
330
0
100
AcDbSymbolTable
 70
2
  0
BLOCK_RECORD
  5
1F
330
1
100
AcDbSymbolTableRecord
100
AcDbBlockTableRecord
  2
*Model_Space
340
2000B
 70
0
280
1
281
0
  0
BLOCK_RECORD
  5
1E
330
1
100
AcDbSymbolTableRecord
100
AcDbBlockTableRecord
  2
*Paper_Space
340
2000C
 70
0
280
1
281
0
  0
ENDTAB
  0
ENDSEC
  0
SECTION
  2
BLOCKS
  0
BLOCK
  5
20
330
1F
100
AcDbEntity
  8
0
100
AcDbBlockBegin
  2
*Model_Space
 70
0
 10
0.0
 20
0.0
 30
0.0
  3
*Model_Space
  1

  0
ENDBLK
  5
21
330
1F
100
AcDbEntity
  8
0
100
AcDbBlockEnd
  0
BLOCK
  5
1C
330
1E
100
AcDbEntity
  8
0
100
AcDbBlockBegin
  2
*Paper_Space
 70
0
 10
0.0
 20
0.0
 30
0.0
  3
*Paper_Space
  1

  0
ENDBLK
  5
1D
330
1E
100
AcDbEntity
  8
0
100
AcDbBlockEnd
  0
ENDSEC
  0
SECTION
  2
ENTITIES
  0
IMAGE
  5
5C
330
1F
100
AcDbEntity
  8
Sichtbar
  6
ByLayer
100
AcDbRasterImage
 90
0
 10
229.9900203018285
 20
10.42935896579858
 30
0.0
 11
0.04
 21
0.0
 31
0.0
 12
2.449293598294707e-18
 22
0.04
 32
0.0
 13
1500.0
 23
478.0
340
5A
 70
1
280
0
281
50
282
50
283
0
360
5B
 71
1
 91
2
 14
-0.5
 24
-0.5
 14
1499.5
 24
477.5
  0
MTEXT
  5
5D
330
1F
100
AcDbEntity
  8
Rahmen
  6
ByLayer
370
13
100
AcDbMText
 10
17.5
 20
223.5
 30
0.0
 40
3.5
 41
1.944444444444444
 71
5
 72
5
  1
B
  7
standard
 73
2
  0
MTEXT
  5
5E
330
1F
100
AcDbEntity
  8
Rahmen
  6
ByLayer
370
13
100
AcDbMText
 10
17.5
 20
173.5
 30
0.0
 40
3.5
 41
1.555555555555773
 71
5
 72
5
  1
C
  7
standard
 73
2
  0
MTEXT
  5
5F
330
1F
100
AcDbEntity
  8
Rahmen
  6
ByLayer
370
13
100
AcDbMText
 10
17.5
 20
123.5
 30
0.0
 40
3.5
 41
1.944444444444662
 71
5
 72
5
  1
D
  7
standard
 73
2
  0
MTEXT
  5
60
330
1F
100
AcDbEntity
  8
Rahmen
  6
ByLayer
370
13
100
AcDbMText
 10
17.5
 20
73.5
 30
0.0
 40
3.5
 41
1.555555555555556
 71
5
 72
5
  1
E
  7
standard
 73
2
  0
MTEXT
  5
61
330
1F
100
AcDbEntity
  8
Rahmen
  6
ByLayer
370
13
100
AcDbMText
 10
17.5
 20
270.25
 30
0.0
 40
3.5
 41
2.333333333333333
 71
5
 72
5
  1
A
  7
standard
 73
2
  0
MTEXT
  5
62
330
1F
100
AcDbEntity
  8
Rahmen
  6
ByLayer
370
13
100
AcDbMText
 10
17.5
 20
26.75
 30
0.0
 40
3.5
 41
1.555555555555556
 71
5
 72
5
  1
F
  7
standard
 73
2
  0
LINE
  5
63
330
1F
100
AcDbEntity
  8
Rahmen
  6
ByLayer
100
AcDbLine
 10
0.0
 20
148.5
 30
0.0
 11
25.0
 21
148.5
 31
0.0
  0
LINE
  5
64
330
1F
100
AcDbEntity
  8
Rahmen
  6
ByLayer
100
AcDbLine
 10
15.0
 20
248.5
 30
0.0
 11
20.0
 21
248.5
 31
0.0
  0
LINE
  5
65
330
1F
100
AcDbEntity
  8
Rahmen
  6
ByLayer
100
AcDbLine
 10
15.0
 20
198.5
 30
0.0
 11
20.0
 21
198.5
 31
0.0
  0
LINE
  5
66
330
1F
100
AcDbEntity
  8
Rahmen
  6
ByLayer
100
AcDbLine
 10
15.0
 20
98.5
 30
0.0
 11
20.0
 21
98.5
 31
0.0
  0
LINE
  5
67
330
1F
100
AcDbEntity
  8
Rahmen
  6
ByLayer
100
AcDbLine
 10
15.0
 20
48.5
 30
0.0
 11
20.0
 21
48.5
 31
0.0
  0
LINE
  5
68
330
1F
100
AcDbEntity
  8
Schriftfeld-Rahmen
  6
ByLayer
100
AcDbLine
 10
290.0
 20
10.0
 30
0.0
 11
290.0
 21
55.0
 31
0.0
  0
LINE
  5
69
330
1F
100
AcDbEntity
  8
Schriftfeld-Rahmen
  6
ByLayer
100
AcDbLine
 10
230.0
 20
43.75
 30
0.0
 11
410.0
 21
43.75
 31
0.0
  0
LINE
  5
6A
330
1F
100
AcDbEntity
  8
Schriftfeld-Rahmen
  6
ByLayer
100
AcDbLine
 10
290.0
 20
32.5
 30
0.0
 11
410.0
 21
32.5
 31
0.0
  0
LINE
  5
6B
330
1F
100
AcDbEntity
  8
Schriftfeld-Rahmen
  6
ByLayer
100
AcDbLine
 10
350.0
 20
10.0
 30
0.0
 11
350.0
 21
32.5
 31
0.0
  0
LINE
  5
6C
330
1F
100
AcDbEntity
  8
Schriftfeld-Rahmen
  6
ByLayer
100
AcDbLine
 10
350.0
 20
21.25
 30
0.0
 11
410.0
 21
21.25
 31
0.0
  0
LINE
  5
6D
330
1F
100
AcDbEntity
  8
Schriftfeld-Rahmen
  6
ByLayer
100
AcDbLine
 10
370.0
 20
32.5
 30
0.0
 11
370.0
 21
55.0
 31
0.0
  0
LINE
  5
6E
330
1F
100
AcDbEntity
  8
Schriftfeld-Rahmen
  6
ByLayer
100
AcDbLine
 10
330.0
 20
32.5
 30
0.0
 11
330.0
 21
43.75
 31
0.0
  0
LINE
  5
6F
330
1F
100
AcDbEntity
  8
Schriftfeld-Rahmen
  6
ByLayer
100
AcDbLine
 10
370.0
 20
10.0
 30
0.0
 11
370.0
 21
21.25
 31
0.0
  0
LWPOLYLINE
  5
70
330
1F
100
AcDbEntity
  8
Schriftfeld-Rahmen
  6
ByLayer
100
AcDbPolyline
 90
4
 70
1
 10
230.0
 20
10.0
 10
410.0
 20
10.0
 10
410.0
 20
55.0
 10
230.0
 20
55.0
  0
TEXT
  5
71
330
1F
100
AcDbEntity
  8
Schriftfeld-Label
  6
ByLayer
100
AcDbText
 10
332.0
 20
40.0
 30
0.0
 40
2.0
  1
Jahrgang:
  7
unicode
100
AcDbText
  0
TEXT
  5
72
330
1F
100
AcDbEntity
  8
Schriftfeld-Label
  6
ByLayer
100
AcDbText
 10
292.0
 20
40.0
 30
0.0
 40
2.0
  1
Vor- und Zuname:
  7
unicode
100
AcDbText
  0
TEXT
  5
73
330
1F
100
AcDbEntity
  8
Schriftfeld-Label
  6
ByLayer
100
AcDbText
 10
352.0
 20
29.0
 30
0.0
 40
2.0
  1
Zeichnungs-Nr.:
  7
unicode
100
AcDbText
  0
TEXT
  5
74
330
1F
100
AcDbEntity
  8
Schriftfeld-Label
  6
ByLayer
100
AcDbText
 10
292.0
 20
29.0
 30
0.0
 40
2.0
  1
Titel / Benennung:
  7
unicode
100
AcDbText
  0
TEXT
  5
75
330
1F
100
AcDbEntity
  8
Schriftfeld-Label
  6
ByLayer
100
AcDbText
 10
352.0
 20
18.0
 30
0.0
 40
2.0
  1
Maßstab:
  7
unicode
100
AcDbText
  0
TEXT
  5
76
330
1F
100
AcDbEntity
  8
Schriftfeld-Label
  6
ByLayer
100
AcDbText
 10
372.0
 20
18.0
 30
0.0
 40
2.0
  1
Datum:
  7
unicode
100
AcDbText
  0
TEXT
  5
77
330
1F
100
AcDbEntity
  8
Schriftfeld-Label
  6
ByLayer
100
AcDbText
 10
292.0
 20
51.0
 30
0.0
 40
2.0
  1
Projekt:
  7
unicode
100
AcDbText
  0
TEXT
  5
78
330
1F
100
AcDbEntity
  8
Schriftfeld-Label
  6
ByLayer
100
AcDbText
 10
372.0
 20
51.0
 30
0.0
 40
2.0
  1
Werkstoff:
  7
unicode
100
AcDbText
  0
TEXT
  5
79
330
1F
100
AcDbEntity
  8
Schriftfeld-Label
  6
ByLayer
100
AcDbText
 10
232.0
 20
51.0
 30
0.0
 40
2.0
  1
Klasse:
  7
unicode
100
AcDbText
  0
TEXT
  5
7A
330
1F
100
AcDbEntity
  8
Schriftfeld-Label
  6
ByLayer
100
AcDbText
 10
232.0
 20
40.0
 30
0.0
 40
2.0
  1
Schule:
  7
unicode
100
AcDbText
  0
MTEXT
  5
7B
330
1F
100
AcDbEntity
  8
Schriftfeld-Text
  6
ByLayer
100
AcDbMText
 10
292.0
 20
16.0
 30
0.0
 40
2.0
 41
0.0
 71
7
 72
5
  1

  7
unicode
 73
2
  0
MTEXT
  5
7C
330
1F
100
AcDbEntity
  8
Schriftfeld-Text
  6
ByLayer
100
AcDbMText
 10
352.0
 20
12.0
 30
0.0
 40
3.0
 41
7.833333333333333
 71
7
 72
5
  1
1 : 1
  7
unicode
 73
2
  0
TEXT
  5
7D
330
1F
100
AcDbEntity
  8
Schriftfeld-Label
  6
ByLayer
100
AcDbText
 10
396.0
 20
18.0
 30
0.0
 40
2.0
  1
Blatt-Nr.:
  7
unicode
100
AcDbText
  0
MTEXT
  5
7E
330
1F
100
AcDbEntity
  8
Schriftfeld-Text
  6
ByLayer
100
AcDbMText
 10
396.0
 20
12.0
 30
0.0
 40
3.0
 41
9.166666666666666
 71
7
 72
5
  1
1 / 1
  7
unicode
 73
2
  0
LINE
  5
7F
330
1F
100
AcDbEntity
  8
Schriftfeld-Rahmen
  6
ByLayer
100
AcDbLine
 10
394.0
 20
10.0
 30
0.0
 11
394.0
 21
21.25
 31
0.0
  0
MTEXT
  5
80
330
1F
100
AcDbEntity
  8
Schriftfeld-Text
  6
ByLayer
100
AcDbMText
 10
292.0
 20
21.0
 30
0.0
 40
3.0
 41
0.0
 71
7
 72
5
  1

  7
unicode
 73
2
  0
MTEXT
  5
81
330
1F
100
AcDbEntity
  8
Schriftfeld-Text
  6
ByLayer
100
AcDbMText
 10
332.0
 20
34.0
 30
0.0
 40
2.8
 41
1.866666666666667
 71
7
 72
5
  1
...
  7
unicode
 73
2
  0
MTEXT
  5
82
330
1F
100
AcDbEntity
  8
Schriftfeld-Text
  6
ByLayer
100
AcDbMText
 10
372.0
 20
34.0
 30
0.0
 40
2.8
 41
1.866666666666667
 71
7
 72
5
  1
...
  7
unicode
 73
2
  0
MTEXT
  5
83
330
1F
100
AcDbEntity
  8
Schriftfeld-Text
  6
ByLayer
100
AcDbMText
 10
372.0
 20
46.0
 30
0.0
 40
2.8
 41
1.866666666666667
 71
7
 72
5
  1
...
  7
unicode
 73
2
  0
MTEXT
  5
84
330
1F
100
AcDbEntity
  8
Schriftfeld-Text
  6
ByLayer
100
AcDbMText
 10
292.0
 20
46.0
 30
0.0
 40
2.8
 41
1.866666666666667
 71
7
 72
5
  1
...
  7
unicode
 73
2
  0
MTEXT
  5
85
330
1F
100
AcDbEntity
  8
Schriftfeld-Text
  6
ByLayer
100
AcDbMText
 10
232.0
 20
46.0
 30
0.0
 40
2.8
 41
1.866666666666667
 71
7
 72
5
  1
...
  7
unicode
 73
2
  0
TEXT
  5
86
330
1F
100
AcDbEntity
  8
Schriftfeld-Label
  6
ByLayer
100
AcDbText
 10
372.0
 20
40.0
 30
0.0
 40
2.0
  1
Schuljahr:
  7
unicode
100
AcDbText
  0
MTEXT
  5
87
330
1F
100
AcDbEntity
  8
Schriftfeld-Text
  6
ByLayer
100
AcDbMText
 10
352.0
 20
23.0
 30
0.0
 40
4.0
 41
0.0
 71
7
 72
5
  1

  7
unicode
 73
2
  0
LINE
  5
88
330
1F
100
AcDbEntity
  8
Rahmen
  6
ByLayer
100
AcDbLine
 10
165.0
 20
292.0
 30
0.0
 11
165.0
 21
287.0
 31
0.0
  0
LINE
  5
89
330
1F
100
AcDbEntity
  8
Rahmen
  6
ByLayer
100
AcDbLine
 10
65.0
 20
292.0
 30
0.0
 11
65.0
 21
287.0
 31
0.0
  0
LINE
  5
8A
330
1F
100
AcDbEntity
  8
Rahmen
  6
ByLayer
100
AcDbLine
 10
265.0
 20
292.0
 30
0.0
 11
265.0
 21
287.0
 31
0.0
  0
LINE
  5
8B
330
1F
100
AcDbEntity
  8
Rahmen
  6
ByLayer
100
AcDbLine
 10
315.0
 20
292.0
 30
0.0
 11
315.0
 21
287.0
 31
0.0
  0
LINE
  5
8C
330
1F
100
AcDbEntity
  8
Rahmen
  6
ByLayer
100
AcDbLine
 10
365.0
 20
292.0
 30
0.0
 11
365.0
 21
287.0
 31
0.0
  0
LINE
  5
8D
330
1F
100
AcDbEntity
  8
Rahmen
  6
ByLayer
100
AcDbLine
 10
115.0
 20
292.0
 30
0.0
 11
115.0
 21
287.0
 31
0.0
  0
MTEXT
  5
8E
330
1F
100
AcDbEntity
  8
Rahmen
  6
ByLayer
100
AcDbMText
 10
90.0
 20
289.5
 30
0.0
 40
3.5
 41
1.555555555555556
 71
5
 72
5
  1
2
  7
standard
 73
2
  0
MTEXT
  5
8F
330
1F
100
AcDbEntity
  8
Rahmen
  6
ByLayer
100
AcDbMText
 10
140.0
 20
289.5
 30
0.0
 40
3.5
 41
1.555555555555773
 71
5
 72
5
  1
3
  7
standard
 73
2
  0
MTEXT
  5
90
330
1F
100
AcDbEntity
  8
Rahmen
  6
ByLayer
100
AcDbMText
 10
239.5
 20
289.5
 30
0.0
 40
3.5
 41
1.555555555555773
 71
5
 72
5
  1
5
  7
standard
 73
2
  0
MTEXT
  5
91
330
1F
100
AcDbEntity
  8
Rahmen
  6
ByLayer
100
AcDbMText
 10
190.5
 20
289.5
 30
0.0
 40
3.5
 41
1.944444444444444
 71
5
 72
5
  1
4
  7
standard
 73
2
  0
MTEXT
  5
92
330
1F
100
AcDbEntity
  8
Rahmen
  6
ByLayer
100
AcDbMText
 10
290.0
 20
289.5
 30
0.0
 40
3.5
 41
1.555555555555773
 71
5
 72
5
  1
6
  7
standard
 73
2
  0
MTEXT
  5
93
330
1F
100
AcDbEntity
  8
Rahmen
  6
ByLayer
100
AcDbMText
 10
340.0
 20
289.5
 30
0.0
 40
3.5
 41
1.555555555555556
 71
5
 72
5
  1
7
  7
standard
 73
2
  0
MTEXT
  5
94
330
1F
100
AcDbEntity
  8
Rahmen
  6
ByLayer
100
AcDbMText
 10
90.0
 20
7.500000000000009
 30
0.0
 40
3.5
 41
1.555555555555556
 71
5
 72
5
  1
2
  7
standard
 73
2
  0
MTEXT
  5
95
330
1F
100
AcDbEntity
  8
Rahmen
  6
ByLayer
100
AcDbMText
 10
140.0
 20
7.499999999999994
 30
0.0
 40
3.5
 41
1.555555555555773
 71
5
 72
5
  1
3
  7
standard
 73
2
  0
MTEXT
  5
96
330
1F
100
AcDbEntity
  8
Rahmen
  6
ByLayer
100
AcDbMText
 10
187.5
 20
7.499999999999994
 30
0.0
 40
3.5
 41
1.944444444444444
 71
5
 72
5
  1
4
  7
standard
 73
2
  0
LINE
  5
97
330
1F
100
AcDbEntity
  8
Rahmen
  6
ByLayer
100
AcDbLine
 10
165.0
 20
10.0
 30
0.0
 11
165.0
 21
5.0
 31
0.0
  0
LINE
  5
98
330
1F
100
AcDbEntity
  8
Rahmen
  6
ByLayer
100
AcDbLine
 10
115.0
 20
10.0
 30
0.0
 11
115.0
 21
5.0
 31
0.0
  0
LINE
  5
99
330
1F
100
AcDbEntity
  8
Rahmen
  6
ByLayer
100
AcDbLine
 10
65.0
 20
10.0
 30
0.0
 11
65.0
 21
5.0
 31
0.0
  0
LINE
  5
9A
330
1F
100
AcDbEntity
  8
Rahmen
  6
ByLayer
100
AcDbLine
 10
265.0
 20
10.0
 30
0.0
 11
265.0
 21
5.0
 31
0.0
  0
LINE
  5
9B
330
1F
100
AcDbEntity
  8
Rahmen
  6
ByLayer
100
AcDbLine
 10
315.0
 20
10.0
 30
0.0
 11
315.0
 21
5.0
 31
0.0
  0
LINE
  5
9C
330
1F
100
AcDbEntity
  8
Rahmen
  6
ByLayer
100
AcDbLine
 10
365.0
 20
10.0
 30
0.0
 11
365.0
 21
5.0
 31
0.0
  0
MTEXT
  5
9D
330
1F
100
AcDbEntity
  8
Rahmen
  6
ByLayer
100
AcDbMText
 10
239.5
 20
7.5
 30
0.0
 40
3.5
 41
1.555555555555773
 71
5
 72
5
  1
5
  7
standard
 73
2
  0
MTEXT
  5
9E
330
1F
100
AcDbEntity
  8
Rahmen
  6
ByLayer
100
AcDbMText
 10
290.0
 20
7.5
 30
0.0
 40
3.5
 41
1.555555555555773
 71
5
 72
5
  1
6
  7
standard
 73
2
  0
MTEXT
  5
9F
330
1F
100
AcDbEntity
  8
Rahmen
  6
ByLayer
100
AcDbMText
 10
340.0
 20
7.5
 30
0.0
 40
3.5
 41
1.555555555555556
 71
5
 72
5
  1
7
  7
standard
 73
2
  0
MTEXT
  5
A0
330
1F
100
AcDbEntity
  8
Rahmen
  6
ByLayer
100
AcDbMText
 10
412.5
 20
223.5
 30
0.0
 40
3.5
 41
1.944444444444444
 71
5
 72
5
  1
B
  7
standard
 73
2
  0
MTEXT
  5
A1
330
1F
100
AcDbEntity
  8
Rahmen
  6
ByLayer
100
AcDbMText
 10
412.5
 20
173.5
 30
0.0
 40
3.5
 41
1.555555555555773
 71
5
 72
5
  1
C
  7
standard
 73
2
  0
MTEXT
  5
A2
330
1F
100
AcDbEntity
  8
Rahmen
  6
ByLayer
100
AcDbMText
 10
412.5
 20
123.5
 30
0.0
 40
3.5
 41
1.944444444444662
 71
5
 72
5
  1
D
  7
standard
 73
2
  0
MTEXT
  5
A3
330
1F
100
AcDbEntity
  8
Rahmen
  6
ByLayer
100
AcDbMText
 10
412.5
 20
73.5
 30
0.0
 40
3.5
 41
1.555555555555556
 71
5
 72
5
  1
E
  7
standard
 73
2
  0
MTEXT
  5
A4
330
1F
100
AcDbEntity
  8
Rahmen
  6
ByLayer
100
AcDbMText
 10
412.5
 20
270.25
 30
0.0
 40
3.5
 41
2.333333333333333
 71
5
 72
5
  1
A
  7
standard
 73
2
  0
MTEXT
  5
A5
330
1F
100
AcDbEntity
  8
Rahmen
  6
ByLayer
100
AcDbMText
 10
412.5
 20
26.75
 30
0.0
 40
3.5
 41
1.555555555555556
 71
5
 72
5
  1
F
  7
standard
 73
2
  0
LINE
  5
A6
330
1F
100
AcDbEntity
  8
Rahmen
  6
ByLayer
100
AcDbLine
 10
410.0
 20
248.5
 30
0.0
 11
415.0
 21
248.5
 31
0.0
  0
LINE
  5
A7
330
1F
100
AcDbEntity
  8
Rahmen
  6
ByLayer
100
AcDbLine
 10
410.0
 20
198.5
 30
0.0
 11
415.0
 21
198.5
 31
0.0
  0
LINE
  5
A8
330
1F
100
AcDbEntity
  8
Rahmen
  6
ByLayer
100
AcDbLine
 10
405.0
 20
148.5
 30
0.0
 11
415.0
 21
148.5
 31
0.0
  0
LINE
  5
A9
330
1F
100
AcDbEntity
  8
Rahmen
  6
ByLayer
100
AcDbLine
 10
410.0
 20
98.5
 30
0.0
 11
415.0
 21
98.5
 31
0.0
  0
LINE
  5
AA
330
1F
100
AcDbEntity
  8
Rahmen
  6
ByLayer
100
AcDbLine
 10
410.0
 20
48.5
 30
0.0
 11
415.0
 21
48.5
 31
0.0
  0
LWPOLYLINE
  5
AB
330
1F
100
AcDbEntity
  8
Rahmen
  6
ByLayer
100
AcDbPolyline
 90
4
 70
1
 10
15.0
 20
292.0
 10
15.0
 20
5.0
 10
415.00000002
 20
5.0
 10
415.00000002
 20
292.0
  0
LWPOLYLINE
  5
AC
330
1F
100
AcDbEntity
  8
Rahmen
  6
ByLayer
370
0
100
AcDbPolyline
 90
4
 70
1
 10
0.0
 20
0.0
 10
420.0
 20
0.0
 10
420.0
 20
297.0
 10
0.0
 20
297.0
  0
MTEXT
  5
AD
330
1F
100
AcDbEntity
  8
Rahmen
  6
ByLayer
100
AcDbMText
 10
40.5
 20
7.5
 30
0.0
 40
3.5
 41
0.7777777777777778
 71
5
 72
5
  1
1
  7
standard
 73
2
  0
MTEXT
  5
AE
330
1F
100
AcDbEntity
  8
Rahmen
  6
ByLayer
100
AcDbMText
 10
40.5
 20
289.5
 30
0.0
 40
3.5
 41
0.7777777777777778
 71
5
 72
5
  1
1
  7
standard
 73
2
  0
MTEXT
  5
AF
330
1F
100
AcDbEntity
  8
Rahmen
  6
ByLayer
100
AcDbMText
 10
390.5
 20
289.5
 30
0.0
 40
3.5
 41
1.555555555555556
 71
5
 72
5
  1
8
  7
standard
 73
2
  0
MTEXT
  5
B0
330
1F
100
AcDbEntity
  8
Rahmen
  6
ByLayer
100
AcDbMText
 10
390.5
 20
7.5
 30
0.0
 40
3.5
 41
1.555555555555556
 71
5
 72
5
  1
8
  7
standard
 73
2
  0
LINE
  5
B1
330
1F
100
AcDbEntity
  8
Rahmen
  6
ByLayer
100
AcDbLine
 10
215.0
 20
292.0
 30
0.0
 11
215.0
 21
282.0
 31
0.0
  0
LINE
  5
B2
330
1F
100
AcDbEntity
  8
Rahmen
  6
ByLayer
100
AcDbLine
 10
215.0
 20
15.0
 30
0.0
 11
215.0
 21
5.0
 31
0.0
  0
LWPOLYLINE
  5
B3
330
1F
100
AcDbEntity
  8
Rahmen
  6
ByLayer
370
70
100
AcDbPolyline
 90
4
 70
1
 10
20.0
 20
287.0
 10
20.0
 20
10.0
 10
410.00000006
 20
10.0
 10
410.00000006
 20
287.0
  0
MTEXT
  5
B4
330
1F
100
AcDbEntity
  8
Schriftfeld-Text
  6
ByLayer
100
AcDbMText
 10
372.0
 20
12.0
 30
0.0
 40
3.0
 41
0.0
 71
7
 72
5
  1

  7
unicode
 73
2
  0
CIRCLE
  5
B5
330
1F
100
AcDbEntity
  8
Rahmen
  6
ByLayer
 62
9
370
13
100
AcDbCircle
 10
11.0
 20
268.5
 30
0.0
 40
2.75
  0
CIRCLE
  5
B6
330
1F
100
AcDbEntity
  8
Rahmen
  6
ByLayer
 62
9
370
13
100
AcDbCircle
 10
11.0
 20
188.5
 30
0.0
 40
2.75
  0
CIRCLE
  5
B7
330
1F
100
AcDbEntity
  8
Rahmen
  6
ByLayer
 62
9
370
13
100
AcDbCircle
 10
11.0
 20
108.5
 30
0.0
 40
2.75
  0
CIRCLE
  5
B8
330
1F
100
AcDbEntity
  8
Rahmen
  6
ByLayer
 62
9
370
13
100
AcDbCircle
 10
11.0
 20
28.5
 30
0.0
 40
2.75
  0
LINE
  5
B9
330
1F
100
AcDbEntity
  8
Rahmen
  6
ByLayer
100
AcDbLine
 10
125.0
 20
0.0
 30
0.0
 11
125.0
 21
5.0
 31
0.0
  0
LINE
  5
BA
330
1F
100
AcDbEntity
  8
Rahmen
  6
ByLayer
100
AcDbLine
 10
230.0
 20
0.0
 30
0.0
 11
230.0
 21
5.0
 31
0.0
  0
LINE
  5
BB
330
1F
100
AcDbEntity
  8
Rahmen
  6
ByLayer
100
AcDbLine
 10
230.0
 20
292.0
 30
0.0
 11
230.0
 21
297.0
 31
0.0
  0
LINE
  5
BC
330
1F
100
AcDbEntity
  8
Rahmen
  6
ByLayer
100
AcDbLine
 10
125.0
 20
292.0
 30
0.0
 11
125.0
 21
297.0
 31
0.0
  0
MTEXT
  5
BD
330
1F
100
AcDbEntity
  8
Schriftfeld-Text
  6
ByLayer
100
AcDbMText
 10
292.0
 20
34.0
 30
0.0
 40
2.8
 41
1.866666666666667
 71
7
 72
5
  1
...
  7
unicode
 73
2
  0
MTEXT
  5
BE
330
1F
100
AcDbEntity
  8
Schriftfeld-Text
  6
ByLayer
100
AcDbMText
 10
241.2559456490302
 20
39.35932845047691
 30
0.0
 40
2.5
 41
48.13033797476135
 71
7
  1
OeAS Erhard Busek Chisinau
  7
unicode
 73
2
  0
ENDSEC
  0
SECTION
  2
OBJECTS
  0
DICTIONARY
  5
C
330
0
100
AcDbDictionary
281
1
  3
ACAD_GROUP
350
D
  3
ACAD_IMAGE_DICT
350
BF
  3
ACAD_COLOR
350
20000
  3
ACAD_LAYOUT
350
20001
  3
ACAD_MATERIAL
350
20002
  3
ACAD_MLEADERSTYLE
350
20003
  3
ACAD_MLINESTYLE
350
20004
  3
ACAD_PLOTSETTINGS
350
20005
  3
ACAD_PLOTSTYLENAME
350
20006
  3
ACAD_SCALELIST
350
20008
  3
ACAD_TABLESTYLE
350
20009
  3
ACAD_VISUALSTYLE
350
2000A
  3
EZDXF_META
350
20014
  0
DICTIONARY
  5
D
330
C
100
AcDbDictionary
281
1
  0
IMAGEDEF_REACTOR
  5
5B
330
5C
100
AcDbRasterImageDefReactor
 90
2
330
5C
  0
DICTIONARY
  5
BF
330
C
100
AcDbDictionary
281
1
  3
logo
350
5A
  0
IMAGEDEF
  5
5A
102
{ACAD_REACTORS
330
5B
102
}
330
0
100
AcDbRasterImageDef
 90
0
  1
D:/Spengergasse/Projekte/opencode/Moldau/docs/assets/logo.webp
 10
1500.0
 20
478.0
 11
1.0
 21
1.0
280
1
281
0
  0
PLOTSETTINGS
  5
C0
330
0
100
AcDbPlotSettings
  1

  4
A3
  6
1x1
 40
0.0
 41
0.0
 42
0.0
 43
0.0
 44
420.0
 45
297.0
 46
0.0
 47
0.0
 48
0.0
 49
0.0
140
0.0
141
0.0
142
1.0
143
1.0
 70
688
 72
1
 73
0
 74
5
  7

 75
16
 76
0
 77
2
 78
300
147
1.0
148
0.0
149
0.0
  0
DICTIONARY
  5
20000
330
C
100
AcDbDictionary
281
1
  0
DICTIONARY
  5
20001
330
C
100
AcDbDictionary
281
1
  3
Model
350
2000B
  3
Layout1
350
2000C
  0
DICTIONARY
  5
20002
330
C
100
AcDbDictionary
281
1
  3
ByBlock
350
2000D
  3
ByLayer
350
2000E
  3
Global
350
2000F
  0
DICTIONARY
  5
20003
330
C
100
AcDbDictionary
281
1
  3
Standard
350
20011
  0
DICTIONARY
  5
20004
330
C
100
AcDbDictionary
281
1
  3
Standard
350
20010
  0
DICTIONARY
  5
20005
330
C
100
AcDbDictionary
281
1
  0
ACDBDICTIONARYWDFLT
  5
20006
330
C
100
AcDbDictionary
281
1
  3
Normal
350
20007
100
AcDbDictionaryWithDefault
340
20007
  0
ACDBPLACEHOLDER
  5
20007
330
20006
  0
DICTIONARY
  5
20008
330
C
100
AcDbDictionary
281
1
  0
DICTIONARY
  5
20009
330
C
100
AcDbDictionary
281
1
  0
DICTIONARY
  5
2000A
330
C
100
AcDbDictionary
281
1
  0
LAYOUT
  5
2000B
330
20001
100
AcDbPlotSettings
  1

  4
A3
  6

 40
7.5
 41
20.0
 42
7.5
 43
20.0
 44
420.0
 45
297.0
 46
0.0
 47
0.0
 48
0.0
 49
0.0
140
0.0
141
0.0
142
1.0
143
1.0
 70
1024
 72
1
 73
0
 74
5
  7

 75
16
 76
0
 77
2
 78
300
147
1.0
148
0.0
149
0.0
100
AcDbLayout
  1
Model
 70
1
 71
0
 10
0.0
 20
0.0
 11
420.0
 21
297.0
 12
0.0
 22
0.0
 32
0.0
 14
1e+20
 24
1e+20
 34
1e+20
 15
-1e+20
 25
-1e+20
 35
-1e+20
146
0.0
 13
0.0
 23
0.0
 33
0.0
 16
1.0
 26
0.0
 36
0.0
 17
0.0
 27
1.0
 37
0.0
 76
1
330
1F
  0
LAYOUT
  5
2000C
330
20001
100
AcDbPlotSettings
  1

  4
A3
  6

 40
7.5
 41
20.0
 42
7.5
 43
20.0
 44
420.0
 45
297.0
 46
0.0
 47
0.0
 48
0.0
 49
0.0
140
0.0
141
0.0
142
1.0
143
1.0
 70
0
 72
1
 73
0
 74
5
  7

 75
16
 76
0
 77
2
 78
300
147
1.0
148
0.0
149
0.0
100
AcDbLayout
  1
Layout1
 70
1
 71
1
 10
0.0
 20
0.0
 11
420.0
 21
297.0
 12
0.0
 22
0.0
 32
0.0
 14
1e+20
 24
1e+20
 34
1e+20
 15
-1e+20
 25
-1e+20
 35
-1e+20
146
0.0
 13
0.0
 23
0.0
 33
0.0
 16
1.0
 26
0.0
 36
0.0
 17
0.0
 27
1.0
 37
0.0
 76
1
330
1E
  0
MATERIAL
  5
2000D
102
{ACAD_REACTORS
330
20002
102
}
330
20002
100
AcDbMaterial
  1
ByBlock
  2

 70
0
 40
1.0
 71
1
 41
1.0
 91
-1023410177
 42
1.0
 72
1
  3

 73
1
 74
1
 75
1
 44
0.5
 73
0
 45
1.0
 46
1.0
 77
1
  4

 78
1
 79
1
170
1
 48
1.0
171
1
  6

172
1
173
1
174
1
140
1.0
141
1.0
175
1
  7

176
1
177
1
178
1
143
1.0
179
1
  8

270
1
271
1
272
1
145
1.0
146
1.0
273
1
  9

274
1
275
1
276
1
 42
1.0
 72
1
  3

 73
1
 74
1
 75
1
 94
63
  0
MATERIAL
  5
2000E
102
{ACAD_REACTORS
330
20002
102
}
330
20002
100
AcDbMaterial
  1
ByLayer
  2

 70
0
 40
1.0
 71
1
 41
1.0
 91
-1023410177
 42
1.0
 72
1
  3

 73
1
 74
1
 75
1
 44
0.5
 73
0
 45
1.0
 46
1.0
 77
1
  4

 78
1
 79
1
170
1
 48
1.0
171
1
  6

172
1
173
1
174
1
140
1.0
141
1.0
175
1
  7

176
1
177
1
178
1
143
1.0
179
1
  8

270
1
271
1
272
1
145
1.0
146
1.0
273
1
  9

274
1
275
1
276
1
 42
1.0
 72
1
  3

 73
1
 74
1
 75
1
 94
63
  0
MATERIAL
  5
2000F
102
{ACAD_REACTORS
330
20002
102
}
330
20002
100
AcDbMaterial
  1
Global
  2

 70
0
 40
1.0
 71
1
 41
1.0
 91
-1023410177
 42
1.0
 72
1
  3

 73
1
 74
1
 75
1
 44
0.5
 73
0
 45
1.0
 46
1.0
 77
1
  4

 78
1
 79
1
170
1
 48
1.0
171
1
  6

172
1
173
1
174
1
140
1.0
141
1.0
175
1
  7

176
1
177
1
178
1
143
1.0
179
1
  8

270
1
271
1
272
1
145
1.0
146
1.0
273
1
  9

274
1
275
1
276
1
 42
1.0
 72
1
  3

 73
1
 74
1
 75
1
 94
63
  0
MLINESTYLE
  5
20010
102
{ACAD_REACTORS
330
20004
102
}
330
20004
100
AcDbMlineStyle
  2
Standard
 70
0
  3

 62
256
 51
90.0
 52
90.0
 71
2
 49
0.5
 62
256
  6
BYLAYER
 49
-0.5
 62
256
  6
BYLAYER
  0
MLEADERSTYLE
  5
20011
102
{ACAD_REACTORS
330
20003
102
}
330
20003
100
AcDbMLeaderStyle
179
2
170
2
171
1
172
0
 90
2
 40
0.0
 41
0.0
173
1
 91
-1056964608
 92
-2
290
1
 42
2.0
291
1
 43
8.0
  3
Standard
 44
4.0
300

342
56
174
1
175
1
176
0
178
1
 93
-1056964608
 45
4.0
292
0
297
0
 46
4.0
 94
-1056964608
 47
1.0
 49
1.0
140
1.0
294
1
141
0.0
177
0
142
1.0
295
0
296
0
143
3.75
271
0
272
9
273
9
  0
DICTIONARY
  5
20014
330
C
100
AcDbDictionary
280
1
281
1
  3
WRITTEN_BY_EZDXF
350
20015
  0
DICTIONARYVAR
  5
20015
330
20014
100
DictionaryVariables
280
0
  1
1.4.3 @ 2026-05-04T17:19:17.065788+00:00
  0
ENDSEC
  0
EOF
